<svg width="96" height="265" viewBox="0 0 96 265" fill="none" xmlns="http://www.w3.org/2000/svg">
<path d="M31.0046 76.3978C18.5899 73.3542 19.8906 56.6729 21.6918 46.7109C23.5204 26.9343 31.3233 0.32532 55.4664 17.7573C64.7297 25.5414 69.0679 37.2647 76.394 46.6387C80.049 51.7907 86.1113 55.0192 89.0773 60.5638C92.3565 79.7291 60.2583 74.1313 48.7328 74.5541C42.7463 74.4551 36.9198 76.3371 31.0046 76.3978ZM36.5779 59.4912C46.1554 57.6992 55.8687 58.7617 65.5204 58.7754C56.5895 49.8294 53.5306 34.9134 42.2401 28.6329C38.8399 38.5276 37.3058 49.0834 36.5779 59.4912Z" fill="currentColor"/>
<path d="M62.3331 64.4193C58.9711 64.1968 56.3874 61.9963 55.3231 59.0762C54.7446 58.946 54.1725 58.7672 53.611 58.5387C53.1959 58.3699 52.7878 58.1826 52.3895 57.9769C51.3306 58.9693 50.0131 59.6794 48.5356 59.9833C47.2082 60.2548 45.8182 60.1714 44.5251 59.777C40.3611 66.3325 28.9845 65.0512 28.501 56.5968C29.113 46.8946 32.9 37.1086 37.2086 28.4264C41.7606 20.5495 54.7697 25.4396 52.5875 34.3756C53.1761 35.1273 53.6441 35.9929 53.9592 36.9483C56.6251 38.1209 58.5217 40.4965 59.9321 42.9704C71.1783 43.3248 76.2495 64.3767 62.3331 64.4193Z" fill="currentColor"/>
<path d="M0.43737 258.762C-0.974694 254.746 1.16583 250.276 4.93989 248.542C11.7193 241.683 15.177 232.41 20.6601 224.584C24.6904 218.339 29.536 212.546 32.2709 205.563C39.1154 190.145 41.423 173.456 44.269 156.97C50.0686 127.026 55.4196 95.8289 49.0635 65.553C47.0117 57.2728 43.3994 49.4391 41.2698 41.2064C39.2631 30.9216 54.894 27.5665 57.1022 37.9381C74.4416 78.4943 67.8222 123.116 59.2809 164.997C55.7487 190.373 48.8402 215.488 32.6178 235.833C26.6776 244.865 12.386 276.989 0.43737 258.762Z" fill="currentColor"/>
<path d="M45.226 76.3384C41.8911 76.1258 38.5727 75.7237 35.2432 75.4462C32.9748 76.149 30.4109 75.8526 28.2738 74.4866C22.2258 79.4379 12.9478 72.8682 15.6495 65.4771C21.0112 49.5977 25.5319 33.4745 30.363 17.4306C41.6296 -19.1396 59.5981 10.5883 72.401 27.4061C79.5025 37.4676 91.5954 44.6528 95.1508 56.8887C97.5385 65.4058 89.8265 71.8037 81.8433 71.9335C69.5431 72.9923 57.7491 77.8761 45.226 76.3384ZM36.9933 59.3898C50.4926 62.0563 63.4032 58.4483 76.6095 56.2508C65.3065 45.3706 56.8857 32.1776 46.3128 20.7152C42.1077 33.4488 38.9019 46.4876 34.6535 59.2069C35.4275 59.2406 36.2087 59.3114 36.9933 59.3898Z" fill="currentColor"/>
<path d="M22.8044 75.8971C21.567 74.8019 20.6888 73.3431 20.2984 71.7486C15.6324 67.1929 19.0298 58.5967 25.3911 58.204C39.2695 33.9233 59.4991 55.8313 42.145 62.9749C41.9025 63.1942 41.6642 63.415 41.4284 63.6379C41.288 63.7848 41.1492 63.9325 41.012 64.081C41.0968 65.3044 40.9519 66.5802 40.5407 67.6801C40.219 68.532 39.7941 69.3037 39.2814 69.9934C38.5695 77.3295 28.1106 80.3014 22.8044 75.8971Z" fill="currentColor"/>
</svg>
