<svg width="141" height="369" viewBox="0 0 141 369" fill="none" xmlns="http://www.w3.org/2000/svg">
<path d="M10.822 366.113C2.52094 358.7 13.2604 350.554 18.652 345.369C28.2899 336.642 35.8138 326.021 43.7365 315.793C59.3303 296.704 72.2033 275.693 84.0084 254.106C97.8329 232.842 104.598 207.85 106.162 182.68C85.4094 199.584 49.016 217.437 27.4212 192.925C17.1724 180.663 13.9914 161.255 22.9698 147.474C39.3833 121.811 101.832 102.854 116.971 137.727C132.266 93.991 120.442 62.7044 107.499 20.7664C106.386 16.7575 104.56 12.9044 103.837 8.82102C102.874 0.317512 114.776 -3.48242 118.93 4.02084C128.172 33.7932 139.792 63.9552 140.859 95.4425C139.53 119.026 134.56 143.913 122.843 164.603C123.19 189.285 119.85 214.404 110.666 237.428C98.1329 264.956 82.0676 291.143 64.3064 315.634C51.4071 332.695 38.552 349.76 22.6453 364.176C20.1994 368.193 14.415 368.995 10.822 366.113ZM55.1127 188.737C75.0489 186.973 93.2002 174.649 106.283 160.06C104.989 151.638 103.357 139.444 94.099 136.363C94.2269 136.393 94.3554 136.421 94.484 136.45C94.6836 136.523 94.8834 136.596 95.0831 136.668C73.5578 132.277 45.9361 139.563 34.7582 159.721C30.9621 172.876 39.9849 190.255 55.1127 188.737Z" fill="currentColor"/>
<path d="M5.76173 365.641C-1.81831 362.736 -0.336332 354.076 1.4041 347.842C4.2064 334.732 6.85028 321.598 9.00435 308.367C10.6908 301.936 9.4679 294.851 11.705 288.705C15.1604 282.607 24.9471 284.133 26.4747 290.955C26.8942 311.464 20.7167 331.782 17.033 351.888C34.7889 353.843 52.8299 349.445 70.3441 347.165C72.5781 346.727 74.7569 346.829 76.7458 348.039C82.7708 351.346 81.3747 361.515 74.4966 362.808C66.027 364.323 57.4942 365.507 48.9616 366.597C34.7412 368.278 19.5275 370.802 5.76173 365.641Z" fill="currentColor"/>
</svg>
